<svg width="236" height="236" viewBox="0 0 236 236" fill="none" xmlns="http://www.w3.org/2000/svg">
<defs>
  <filter id="shadow" x="-10%" y="-10%" width="120%" height="125%" filterUnits="userSpaceOnUse">
    <feDropShadow dx="0" dy="4" stdDeviation="8" flood-color="rgba(0,0,0,0.20)"/>
  </filter>
  <radialGradient id="hdr_shine" cx="80" cy="36" r="100" gradientUnits="userSpaceOnUse">
    <stop offset="0%" stop-color="white" stop-opacity="0.22"/>
    <stop offset="100%" stop-color="white" stop-opacity="0"/>
  </radialGradient>
</defs>

<!-- Calendar body: white rounded rect -->
<rect x="28" y="28" width="180" height="186" rx="18" fill="white" filter="url(#shadow)"/>

<!-- Red header: rounded top, flat bottom -->
<rect x="28" y="28" width="180" height="70" rx="18" fill="#e03131"/>
<rect x="28" y="68" width="180" height="30" fill="#e03131"/>
<rect x="28" y="28" width="180" height="70" rx="18" fill="url(#hdr_shine)"/>
<rect x="28" y="68" width="180" height="30" fill="url(#hdr_shine)"/>

<!-- Month label bar on header -->
<rect x="84" y="50" width="68" height="10" rx="5" fill="rgba(255,255,255,0.88)"/>

<!-- Day-of-week header dots - 7 columns -->
<rect x="39"  y="104" width="18" height="6" rx="3" fill="rgba(0,0,0,0.12)"/>
<rect x="63"  y="104" width="18" height="6" rx="3" fill="rgba(0,0,0,0.12)"/>
<rect x="87"  y="104" width="18" height="6" rx="3" fill="rgba(0,0,0,0.12)"/>
<rect x="111" y="104" width="18" height="6" rx="3" fill="rgba(0,0,0,0.12)"/>
<rect x="135" y="104" width="18" height="6" rx="3" fill="rgba(0,0,0,0.12)"/>
<rect x="159" y="104" width="18" height="6" rx="3" fill="rgba(0,0,0,0.12)"/>
<rect x="179" y="104" width="18" height="6" rx="3" fill="rgba(0,0,0,0.08)"/>

<!-- Date grid - 4 rows × 7 cols -->
<!-- Row 1  y=118 -->
<rect x="39"  y="118" width="18" height="14" rx="5" fill="rgba(0,0,0,0.05)"/>
<rect x="63"  y="118" width="18" height="14" rx="5" fill="rgba(0,0,0,0.05)"/>
<rect x="87"  y="118" width="18" height="14" rx="5" fill="rgba(0,0,0,0.05)"/>
<rect x="111" y="118" width="18" height="14" rx="5" fill="rgba(0,0,0,0.05)"/>
<rect x="135" y="118" width="18" height="14" rx="5" fill="rgba(0,0,0,0.05)"/>
<rect x="159" y="118" width="18" height="14" rx="5" fill="rgba(0,0,0,0.05)"/>
<rect x="179" y="118" width="18" height="14" rx="5" fill="rgba(0,0,0,0.03)"/>
<!-- Row 2  y=140 - today highlighted -->
<rect x="39"  y="140" width="18" height="14" rx="5" fill="rgba(0,0,0,0.05)"/>
<rect x="63"  y="140" width="18" height="14" rx="5" fill="rgba(0,0,0,0.05)"/>
<rect x="87"  y="140" width="18" height="14" rx="5" fill="#e03131"/>
<rect x="111" y="140" width="18" height="14" rx="5" fill="rgba(0,0,0,0.05)"/>
<rect x="135" y="140" width="18" height="14" rx="5" fill="rgba(0,0,0,0.05)"/>
<rect x="159" y="140" width="18" height="14" rx="5" fill="rgba(0,0,0,0.05)"/>
<rect x="179" y="140" width="18" height="14" rx="5" fill="rgba(0,0,0,0.03)"/>
<!-- Row 3  y=162 -->
<rect x="39"  y="162" width="18" height="14" rx="5" fill="rgba(0,0,0,0.05)"/>
<rect x="63"  y="162" width="18" height="14" rx="5" fill="rgba(0,0,0,0.05)"/>
<rect x="87"  y="162" width="18" height="14" rx="5" fill="rgba(0,0,0,0.05)"/>
<rect x="111" y="162" width="18" height="14" rx="5" fill="rgba(0,0,0,0.05)"/>
<rect x="135" y="162" width="18" height="14" rx="5" fill="rgba(0,0,0,0.05)"/>
<rect x="159" y="162" width="18" height="14" rx="5" fill="rgba(0,0,0,0.05)"/>
<rect x="179" y="162" width="18" height="14" rx="5" fill="rgba(0,0,0,0.03)"/>
<!-- Row 4  y=184 -->
<rect x="39"  y="184" width="18" height="14" rx="5" fill="rgba(0,0,0,0.05)"/>
<rect x="63"  y="184" width="18" height="14" rx="5" fill="rgba(0,0,0,0.05)"/>
<rect x="87"  y="184" width="18" height="14" rx="5" fill="rgba(0,0,0,0.05)"/>
<rect x="111" y="184" width="18" height="14" rx="5" fill="rgba(0,0,0,0.05)"/>
<rect x="135" y="184" width="18" height="14" rx="5" fill="rgba(0,0,0,0.05)"/>
<rect x="159" y="184" width="18" height="14" rx="5" fill="rgba(0,0,0,0.05)"/>
<rect x="179" y="184" width="18" height="14" rx="5" fill="rgba(0,0,0,0.03)"/>

</svg>
